<svg width="800" height="800" xmlns="http://www.w3.org/2000/svg">
            <rect width="100%" height="100%" fill="black"/>
            <g transform="translate(400, 400)"><path d="M 80 -0 L 82.91033655828448 -13.131707252902828 L 83.77102716040078 -27.218856698075964 L 82.35067497230214 -41.95976468143185 L 78.45898539447761 -57.00378959323945 L 71.9562975979147 -71.95629759791468 L 62.762647703407666 -86.38537357987194 L 50.86606009493806 -99.83026391598175 L 36.32975451425672 -111.81148737814623 L 19.297955676192817 -121.84249688069403 L 0.000000000000007926080580936734 -129.4427190999916 L -21.24754866551031 -134.15174256999723 L -44.04103527239963 -135.54436921801906 L -67.89232541450414 -133.24619110168018 L -92.23406904940896 -126.94930509109635 L -116.42773521802837 -116.42773521802839 L -139.77447058308994 -101.55209720804915 L -161.5287601219307 -82.30301410740444 L -180.91478691052043 -58.78277760700738 L -197.145301227116 -31.22474819746891 L -209.4427190999916 -0.000000000000025649335555052292 L -217.06207912828174 34.37925591841308 L -219.31539637841985 71.25989197047569 L -215.59686607398226 109.85209009593608 L -205.408290485574 149.2378586426484 L -188.38403281594313 188.38403281594307 L -164.31474491145684 226.15984416296186 L -133.16907420234259 261.3590240379124 L -95.11253212126404 292.7262742886667 L -50.522703873661726 318.98779810781 L -0.00000000000006225224507538863 338.8854381999832 L 55.62680458392333 351.213821698279 L 115.3009272428752 354.85976559643893 L 177.74441551044006 348.84305717566247 L 241.4719276920577 332.35759557667024 L 304.8117680339714 304.8117680339716 L 365.93431474605154 265.8668421195063 L 422.88778415984314 215.47208830974716 L 473.6410611991871 153.89530972827137 L 516.1330993349263 81.74745207113025 L 548.3281572999748 0.00000000000013430166454395612 L 568.2759008265607 -90.00606050233584 L 574.1751619748588 -186.56081921335075 L 564.4399232496448 -287.596505606376 L 537.7658860622442 -390.7097863347063 L 493.19580084991475 -493.1958008499145 L 430.1815870309626 -592.0941589090143 L 348.6411625120903 -684.246808197755 L 249.00784184953557 -766.3673354878539 L 132.27015594479178 -835.1208974427365 L 0.00000000000027163082247225954 -887.213595499958 L -145.6328650862588 -919.4897225248399 L -301.8617464562259 -929.0349275712978 L -465.34092111681707 -913.2829804253074 L -632.1817140267632 -870.1234816389152 L -798.0075688838849 -798.0075688838867 L -958.0284736550655 -696.048429150469 L -1107.1345923575977 -564.1132508218379 L -1240.008396687041 -402.9031515778071 L -1351.2539967776618 -214.01760801592445 L -1435.541752799933 -0.0000000000005274094837826457 L -1487.7656233514006 235.63892558859453 L -1503.2100895461567 488.42256566957656 L -1477.7229036749532 752.9374267231906 L -1407.8893677011597 1022.8915003614688 L -1291.2033697338006 1291.203369733802 L -1126.2300161814321 1550.1226325640791 L -912.7544133339256 1791.3814005553552 L -651.9109934273395 2006.3757321748967 L -346.28776396071794 2186.374894220398 L -0.0000000000009955942158742499 2322.755348299891 L 381.27179067485315 2407.2553458762404 L 790.2843121257976 2432.245017117455 L 1218.2783478400056 2391.005884100261 L 1655.0732143882321 2278.0128493400753 L 2089.2109386176835 2089.210938617689 L 2508.1511062191444 1822.2784453319014 L 2898.5159929129536 1476.867664155762 L 3246.384128861939 1054.8141450051448 L 3537.6288909980617 560.3053719766366 L 3758.2971010998244 0.0000000000018410346060426704 L 3895.020969227643 -616.9107162634617 L 3935.4551066636122 -1278.706877795371 L 3868.728787775213 -1971.215774563195 L 3685.902217041235 -2677.9647147497003 L 3380.414308351487 -3380.4143083514896 L 2948.5084615133333 -4058.2737387832226 L 2389.6220774896956 -4689.897393468304 L 1706.725138432485 -5252.759861036837 L 906.5931359373512 -5724.003785218461 L 0.0000000000033512136379220405 -6081.052449399716 L -998.1825069383003 -6302.276315103884 L -2068.9911899211925 -6367.7001237810655 L -3189.494122403214 -6259.734671875473 L -4333.037929137918 -5963.915066381313 L -5469.625246969167 -5469.6252469691835 L -6566.424845002368 -4770.7869068452355 L -7588.413386381253 -3866.489741645463 L -8499.143989898776 -2761.5392834376303 L -9261.632676216524 -1466.8985079139889 L -9839.34955049954 -0.000000000006024863966355606 L -10197.297284331526 1615.0932232017465 L -10303.15523044468 3347.698067716538 L -10128.463459650686 5160.709896966439 L -9649.817283422548 7011.002643887632 L -8850.039555320662 8850.039555320665 L -7719.295368358558 10624.698583785612 L -6256.111819135122 12278.31077984959 L -4468.264421870141 13751.903850935603 L -2373.4916438513415 14985.636461434986 L -0.000000000039003593121196094 15920.401999899243 L 2613.2757301401066 16499.573599435415 L 5416.689257637735 16670.85535422574 L 8350.204019369565 16388.198131526176 L 11344.040573025526 15613.732349803868 L 14319.664802289817 14319.664802289864 L 17191.123428787956 12490.082275203808 L 19866.72416623077 10122.601560780651 L 22251.04784083434 7229.8037053078215 L 24247.269137651485 3840.390151765373 L 25759.7515503988 0.000000000018927958369816173 L 26696.870883766947 -4228.36895334184 L 26974.010584670432 -8764.38732535424 L 26516.66159117685 -13510.913916336103 L 25263.549633226412 -18355.043216913193 L 23169.704357610502 -23169.704357610506 L 20209.37764356243 -27815.82201257351 L 16378.71337991579 -32145.034946080366 L 11698.068127177934 -36002.95169176998 L 6213.881795616679 -39232.9055990865 L -0.000000000040860572514651856 -41680.15355029809 L -6841.644683481992 -43196.444483202366 L -14181.076582992024 -43644.86593889617 L -21861.11793570567 -42904.85972270301 L -29699.083789938828 -40877.281983030225 L -37489.369159900285 -37489.36915990041 L -45006.945441361655 -32699.459918766064 L -52011.759112311265 -26501.314940696346 L -58253.99953260427 -18927.871832485816 L -63480.174736737936 -10054.27194738212 L -67439.90510069687 -0.00000000005781304474145877 L -69893.31536696933 11070.013636823749 L -70618.87652356664 22945.46390834618 L -69421.52131387987 35372.03185204155 L -66140.83161625681 48054.127006851675 L -60659.07351751086 60659.07351751086 L -52908.837562328714 72822.76745393495 L -42880.028320612204 84156.79405839152 L -30625.939959663672 94256.95122437434 L -16268.153742998704 102713.08033582452 L -0.0000000002940613104127353 109120.05865099483 L 17911.658320305436 113089.75985017163 L 37126.540491338325 114263.74246246276 L 57233.149787747374 112326.3810365829 L 77753.21079679088 107018.11359928682 L 98148.44267741103 98148.44267741138 L 117829.71289529695 85608.29748109444 L 136168.55317070294 69381.34326130846 L 152510.9507569788 49553.81179214915 L 166193.25507256234 26322.425690381002 L 176559.9637516918 0.00000000017297887557286565 L 182983.07521714104 -28981.671957129394 L 184882.61898602935 -60072.004399685706 L 181747.90235046297 -92605.18163978794 L 173158.945215544 -125807.33780364193 L 158807.51619492206 -158807.51619492203 L 138517.13504342362 -190652.4803492312 L 112261.37158192087 -220325.34722909427 L 80179.7517518131 -246767.901981353 L 42590.57943338038 -268906.33540838666 L -0.00000000021009110541160407 -285680.02240268677 L -46893.33027743556 -296072.8350673127 L -97198.5448910229 -299146.36144849216 L -149838.33142753644 -294074.2833870457 L -203560.54860043267 -280177.05881483085 L -256955.95887233276 -256955.95887233375 L -308482.19324452925 -224125.43252451735 L -356493.90039979666 -181642.7148432302 L -399278.85273833195 -129733.56354396186 L -435099.5904809491 -68913.00512376096 L -462239.98615437857 -0.000000000509472647533689 L -479055.91028445377 75875.00223456437 L -484028.9804345218 157270.54929070664 L -475822.185737508 242443.5130673263 L -453336.00403037365 329367.8864040779 L -415763.4750672555 415763.4750672553 L -362642.56756794115 499134.6735937608 L -293904.0864251469 576819.2476288943 L -209913.31529577766 646046.7547196829 L -111503.58455714217 704005.9258893356 L -0.000000002198713774797424 747920.0085570653 L 122768.332511995 775128.745351766 L 254469.09418173038 783175.3418830138 L 392281.8444948619 769896.4691245543 L 532928.4350045075 733513.0628452057 L 672719.4339395872 672719.4339395901 L 807616.8668382906 586768.0000924577 L 933313.1480286873 475546.8012683819 L 1045325.6074580171 339646.8788397365 L 1139105.516370285 180416.58968090196 " stroke="#FF8C00" stroke-width="2" fill="none" opacity="0.8"/></g></svg>