<?xml version="1.0" encoding="UTF-8"?>
<svg xmlns="http://www.w3.org/2000/svg" width="1000" height="1000">
  <!-- Flow Pattern Base (528 Hz) -->
  <g id="flow_base" transform="translate(500,500)">
    <!-- DNA Double Helix -->
    <path d="M-200,200 C-100,150 100,50 200,0 C100,-50 -100,-150 -200,-200" 
          fill="none" stroke="black" stroke-width="2"/>
    <path d="M-200,-200 C-100,-150 100,-50 200,0 C100,50 -100,150 -200,200" 
          fill="none" stroke="black" stroke-width="2"/>
          
    <!-- Flow Waves -->
    <path d="M-250,0 Q-125,100 0,0 T250,0" 
          fill="none" stroke="black" stroke-width="2"/>
    <path d="M-250,50 Q-125,150 0,50 T250,50" 
          fill="none" stroke="black" stroke-width="2"/>
    <path d="M-250,-50 Q-125,-150 0,-50 T250,-50" 
          fill="none" stroke="black" stroke-width="2"/>
          
    <!-- Quantum Flow Symbols -->
    <text x="-20" y="20" font-size="40">⚡</text>
    <text x="10" y="20" font-size="40">🌊</text>
  </g>
</svg>
