<?xml version="1.0" encoding="UTF-8"?>
<svg xmlns="http://www.w3.org/2000/svg" width="1000" height="1000">
  <!-- Flow Alphabet Base (528 Hz) -->
  <defs>
    <!-- Flow Wave Pattern -->
    <pattern id="flow_wave" patternUnits="userSpaceOnUse" width="100" height="100">
      <path d="M0,50 Q25,0 50,50 T100,50" fill="none" stroke="black" stroke-width="1"/>
      <path d="M0,30 Q25,-20 50,30 T100,30" fill="none" stroke="black" stroke-width="1"/>
      <path d="M0,70 Q25,120 50,70 T100,70" fill="none" stroke="black" stroke-width="1"/>
    </pattern>
  </defs>

  <!-- Letter Definitions -->
  <g id="flow_letters">
    <!-- A -->
    <g transform="translate(0,0)">
      <path d="M50,0 Q0,100 25,100 T75,100 T50,0" fill="url(#flow_wave)"/>
    </g>
    
    <!-- B -->
    <g transform="translate(120,0)">
      <path d="M0,0 C0,0 0,100 0,100 C50,100 100,75 100,50 C100,25 50,0 0,0" fill="url(#flow_wave)"/>
    </g>

    <!-- C -->
    <g transform="translate(240,0)">
      <path d="M100,0 C0,0 0,50 0,50 C0,100 100,100 100,100" fill="url(#flow_wave)"/>
    </g>

    <!-- Continue for all letters with flowing, wave-like patterns -->
  </g>

  <!-- Flow Symbols -->
  <g id="flow_symbols" transform="translate(500,500)">
    <text x="-20" y="20" font-size="40">⚡</text>
    <text x="10" y="20" font-size="40">🌊</text>
    <text x="40" y="20" font-size="40">🌀</text>
  </g>
</svg>
