<?xml version="1.0" encoding="UTF-8"?>
<svg xmlns="http://www.w3.org/2000/svg" width="1000" height="1000">
  <!-- Flow Letter A (528 Hz) -->
  <g transform="translate(500,500)">
    <!-- DNA Double Helix Structure -->
    <path d="M-200,-300 C-100,-200 100,-100 200,0 C100,100 -100,200 -200,300" 
          fill="none" stroke="black" stroke-width="2"/>
    <path d="M-200,300 C-100,200 100,100 200,0 C100,-100 -100,-200 -200,-300" 
          fill="none" stroke="black" stroke-width="2"/>
          
    <!-- Flow Wave Patterns -->
    <path d="M-250,0 Q-125,100 0,0 T250,0" 
          fill="none" stroke="black" stroke-width="2"/>
    <path d="M-250,50 Q-125,150 0,50 T250,50" 
          fill="none" stroke="black" stroke-width="2"/>
    <path d="M-250,-50 Q-125,-150 0,-50 T250,-50" 
          fill="none" stroke="black" stroke-width="2"/>
    
    <!-- Letter A Structure -->
    <path d="M0,-300 L-200,300 L200,300 Z" 
          fill="none" stroke="black" stroke-width="3"/>
    
    <!-- Flow Symbols -->
    <text x="-25" y="50" font-size="60">⚡</text>
    <text x="25" y="50" font-size="60">🌊</text>
  </g>
</svg>
