<svg xmlns="http://www.w3.org/2000/svg" width="1618.033988749895" height="1618.033988749895"><metadata>
        Quantum Font Pattern
        Family: unity
        Frequency: infHz
        Created by Greg
        </metadata><g id="unity_patterns"><path d="M 700.0 500.0 L 699.9700037495159 501.99966670932787 L 699.8800599690293 503.99733469796405 L 699.7303033974508 505.99101035600273 L 699.5209580209288 507.9787102675363 L 699.2523362091591 509.9584662389757 L 698.9248375149008 511.92833024566596 L 698.5389471452519 513.8863792707349 L 698.0952341155256 515.8307200110938 L 697.5943490987138 517.7594934267178 L 697.0370219855341 519.670879110732 L 696.4240591718999 521.5630994594319 L 695.7563405923075 523.4344236231066 L 695.0348165190887 525.2831712204415 L 694.260504148727 527.107715801273 L 693.4344839974568 528.9064880445743 L 692.5578961291645 530.6779786807108 L 691.6319362391808 532.4207411292015 L 690.6578516179001 534.1333938454368 L 689.6369370182774 535.8146223720001 L 688.5705304511664 537.4631810924029 L 687.4600089321509 539.0778946871451 L 686.3067842030331 540.6576592940368 L 685.1122984504576 542.201443376642 L 683.8780200433125 543.7082883065167 L 682.6054393095499 545.1773086665942 L 681.2960643719534 546.6076922846174 L 679.9514170611392 547.9987000069087 L 678.5730289227522 549.3496652240054 L 677.1624373344205 550.6599931607735 L 675.7211817465668 551.9291599445203 L 674.2508000596935 553.1567114653892 L 672.7528251492348 554.3422620439123 L 671.228781547563 555.4854929210356 L 669.680182291227 556.5861505862246 L 668.1085259400323 557.6440449594049 L 666.515293773131 558.6590474425061 L 664.9019471659083 559.6310888562632 L 663.2699251501302 560.5601572777089 L 661.6206421585615 561.4462957934511 L 659.9554859540834 562.2896001834138 L 658.2758157422508 563.0902165492049 L 656.5829604652101 563.8483389007029 L 654.8782172739849 564.5642067138117 L 653.1628501752973 565.23810247165 L 651.4380888483557 565.870349200709 L 649.7051276263855 566.4613080127654 L 647.9651246371112 567.0113756625522 L 646.2192010959247 567.5209821304104 L 644.4684407450708 567.9905882383512 L 642.7138894318656 568.4206833071728 L 640.9565548187181 568.8117828615015 L 639.1974062175475 569.1644263888656 L 637.4373745410828 569.4791751581756 L 635.6773523634772 569.7566101022652 L 633.9181940826736 569.9973297684709 L 632.1607161770172 570.2019483405708 L 630.4056975487002 570.3710937347875 L 628.6538799467696 570.5054057719777 L 626.9059684625963 570.6055344275876 L 625.1626320909076 570.6721381604428 L 623.4245043497123 570.7058823209804 L 621.6921839526965 570.7074376390902 L 619.9662355279315 570.6774787913484 L 618.2471903770178 570.616683047066 L 616.5355472690751 570.5257289922539 L 614.8317732642843 570.4052953303251 L 613.1363045619893 570.2560597580957 L 611.4495473686643 570.078697915432 L 609.7718787813546 569.8738824066949 L 608.1036476824944 569.6422818919748 L 606.4451756422999 569.3845602459702 L 604.7967578252188 569.1013757822558 L 603.1586638971979 568.7933805405936 L 601.5311389308008 568.4612196348767 L 599.9144043054641 568.1055306592466 L 598.3086586004367 567.7269431498928 L 596.7140784781789 567.326078100032 L 595.1308195562297 566.9035475255642 L 593.5590172657672 566.4599540789133 L 591.9987876952887 565.9958907085875 L 590.4502284180301 565.511940362029 L 588.9134193019296 565.0086757293648 L 587.3884233011028 564.4866590257207 L 585.8752872279606 563.9464418098222 L 584.3740425052451 563.3885648366648 L 582.8847058973956 562.8135579421036 L 581.4072802207818 562.2219399572875 L 579.9417550324594 561.6142186509338 L 578.4881072972058 560.9908906975126 L 577.0463020326938 560.3524416694958 L 575.616292932747 559.6993460518946 L 574.1980229687017 559.0320672773946 L 572.7914249689713 558.3510577804726 L 571.3964221769752 557.6567590689597 L 570.0129287876496 556.9496018115885 L 568.6408504628104 556.2300059401439 L 567.2800848256832 555.4983807649052 L 565.9305219349548 554.7551251021431 L 564.5920447387333 554.0006274125082 L 563.2645295088367 553.2352659492091 L 561.9478462558495 552.4594089149543 L 560.6418591254135 551.673414626688 L 559.3464267762297 550.8776316872172 L 558.0614027402679 550.072399162885 L 556.7866357656847 549.2580467665027 L 555.5219701429629 548.4348950448084 L 554.2672460147879 547.6032555697701 L 553.022299670178 546.7634311331067 L 551.7869638233896 545.9157159434392 L 550.5610678781127 545.0603958255399 L 549.3444381774716 544.1977484211816 L 548.1368982403392 543.3280433911348 L 546.9382689844705 542.4515426178972 L 545.7483689369485 541.5685004087787 L 544.5670144324336 540.6791636989956 L 543.3940197996945 539.7837722544635 L 542.2291975368911 538.8825588740098 L 541.0723584760677 537.9757495907497 L 539.9233119373083 537.0635638724052 L 538.7818658729882 536.1462148203634 L 537.6478270025524 535.2239093673016 L 536.5210009382332 534.2968484732229 L 535.4011923021113 533.3652273197705 L 534.2882048349126 532.4292355027086 L 533.1818414969199 531.489057222472 L 532.0819045613689 530.544871472708 L 530.9881957006829 529.5968522267482 L 529.9005160658945 528.6451686219597 L 528.8186663595852 527.6899851419454 L 527.7424469026679 526.7314617965675 L 526.6716576953226 525.7697542997867 L 525.6060984723874 524.8050142453169 L 524.545568753496 523.8373892801071 L 523.4898678882415 522.8670232756684 L 522.4387950966388 521.8940564972768 L 521.3921495051467 520.918625771087 L 520.349730178503 519.9408646492018 L 519.3113361476171 518.9609035727452 L 518.2767664337533 517.9788700329984 L 517.2458200692366 516.9948887306588 L 516.2182961148982 516.0090817332886 L 515.1939936744743 515.0215686310269 L 514.1727119061655 514.0324666906396 L 513.1542500315552 513.0418910079861 L 512.1384073420805 512.0499546589895 L 511.12498320324625 511.0567688491924 L 510.11377705675983 510.0624430619922 L 509.1045884207702 509.0670852056443 L 508.0972168883797 508.0708017591293 L 507.09146212460024 507.07369791698125 L 506.08712386191826 506.0758777331725 L 505.08400189463026 505.0774442641583 L 504.0818960721082 504.07849971118003 L 503.0806062911499 503.0791455619301 L 502.0799324875701 502.07948273168256 L 501.07967462718216 501.0796117039932 L 500.07963269632234 500.07963267107334 L 499.07960669206557 499.0796456739447 L 498.07939661228113 498.07975074247884 L 497.0788024456766 497.08004803542894 L 496.0776241619782 496.08063798055844 L 495.07566170239545 495.0816214149735 L 494.0727149705211 494.0830997257638 L 493.0685838238138 493.0851749910577 L 492.0630680658182 492.08795012159504 L 491.0559674392737 491.0915290029219 L 490.0470816202691 490.09601663831006 L 489.03621021360135 489.10151929250173 L 488.02315274949854 488.10814463638053 L 487.00770868187357 487.1160018926669 L 485.98967738827554 486.12520198273415 L 484.96885817171216 485.13585767464093 L 483.9450502645193 484.14808373247115 L 482.9180528344607 483.1619970670723 L 481.88766499324373 482.177716888279 L 480.8536858076447 481.195364858705 L 479.8159143134419 480.2150652491848 L 478.7741495323622 479.23694509594173 L 477.72819049225205 478.26113435955335 L 476.6778362506931 477.28776608578414 L 475.62288592228765 476.31697656834683 L 474.56313870984997 475.3489055136497 L 473.49839393974474 474.383696207582 L 472.42845110162517 473.4214956843809 L 471.35310989283005 472.4624548976191 L 470.2721702677106 471.50672889334106 L 469.1854324921652 470.55447698537085 L 468.09269720367286 469.60586293280323 L 466.993765477123 468.66105511967993 L 465.888438896754 467.7202267368437 L 464.7765196345196 466.78355596594963 L 463.6578105352165 465.85122616560176 L 462.53211520871594 464.9234260595687 L 461.3992381296537 464.0003499270194 L 460.2589847449464 463.08219779470096 L 459.1111615895103 462.1691756309691 L 457.9555764105736 461.2614955415577 L 456.792038300984 460.35937596696 L 455.62035784192375 459.46304188127084 L 454.44034725545805 458.5727249923164 L 453.25182056735247 457.6886639428775 L 452.0545937806066 456.8111045127838 L 450.84848506016266 455.9402998216332 L 449.63331492925613 455.0765105318577 L 448.4089064778875 454.2200050518323 L 447.1750855839013 453.37105973868495 L 445.931681147168 452.52995910043796 L 444.6785253373708 451.69699599706894 L 443.41545385590655 450.87247184004684 L 442.14230621241273 450.0566967898523 L 440.8589260164392 449.2499899509552 L 439.56516128478137 448.45267956367104 L 438.2608647649952 447.6651031922767 L 436.94589427560834 446.8876079087105 L 435.62011306354214 446.1205504711344 L 434.283390179246 445.3642974965792 L 432.9356008700435 444.61922562683714 L 431.5766269921683 443.8857216867075 L 430.2063574419598 443.16418283363856 L 428.82468860666137 442.4550166977462 L 427.43152483524557 441.7586415111224 L 426.02677892965727 441.07548622527804 L 424.6103726568373 440.40599061549585 L 423.18223728184523 439.750605370795 L 421.74231412236134 439.10979216813496 L 420.29055512479255 438.4840237294122 L 418.8269234621549 437.8737838597241 L 417.35139415383844 437.27956746529907 L 415.8639547072915 436.70188054941053 L 414.3646057815819 436.1412401845174 L 412.85336187270633 435.5981744587913 L 411.33025202042415 435.0732223951167 L 409.7953205362848 434.5669338405721 L 408.2486277524079 434.0798693243254 L 406.6902507904474 433.6125998818068 L 405.1202843500389 433.16570684295436 L 403.53884151588204 432.7397815822608 L 401.9460545824569 432.33542522829623 L 400.3420758952013 431.9532483303243 L 398.7270787068013 431.5938704795896 L 397.1012580470526 431.2579198828133 L 395.4648316045514 430.946032885411 L 393.8180406182558 430.6588534419301 L 392.161150776736 430.3970325312021 L 390.49445312269177 430.16122751371756 L 388.81826496007017 429.9521014287567 L 387.1329307608547 429.7703222288565 L 385.4388230683327 429.6165619492581 L 383.7363433933665 429.49149581006066 L 382.02592309991377 429.39580124892035 L 380.30802427574446 429.33015688225964 L 378.5831405840132 429.2952413931143 L 376.85179809103977 429.2917323439296 L 375.11455606535185 429.3203049128337 L 373.37200774274584 429.3816305521629 L 371.6247810518206 429.47637556829494 L 369.87353929415474 429.60519962215994 L 368.1189817730112 429.76875415014933 L 366.36184436419035 429.96768070553037 L 364.6029000223966 430.20260922089756 L 362.8429592162581 430.4741561926555 L 361.08287028492526 430.7829227890284 L 359.32351970900567 431.1294928836289 L 357.5658322884408 431.51443101719644 L 355.8107712198315 431.93828029072637 L 354.0593380656541 432.4015601938585 L 352.3125726077988 432.9047643730713 L 350.57155257790214 433.4483583449395 L 348.83739325704687 434.0327771604431 L 347.11124693756517 434.658423027077 L 345.39430223991786 435.3256628962791 L 343.6877832779254 436.03482602448383 L 341.99294866601485 436.7862015168939 L 340.31109036261057 437.5800358638541 L 338.64353234435004 438.41653048048465 L 336.9916291064427 439.29583926099605 L 335.35676398521974 440.2180661598335 L 333.7403472997388 441.18326281249665 L 332.14381431021616 442.1914262095272 L 330.5686229920566 443.2424964377413 L 329.0162516253302 444.3363545033083 L 327.4881962007154 445.4728202517103 L 325.9859676441648 446.6516503999679 L 324.5110888638669 447.8725366967584 L 323.06509162444866 449.1351042261863 L 321.64951325479444 450.43890987096967 L 320.2658931973259 451.78344095068445 L 318.91576940808454 453.1681140504362 L 317.60067461847393 454.5922740549183 L 316.32213247103414 456.0551934022402 L 315.0816535431138 457.5560715711841 L 313.8807312737739 459.0940348146528 L 312.7208378106633 460.6681361510244 L 311.6034197949525 462.27735562390956 L 310.5298941036574 463.9206008394443 L 309.5016435698295 465.5967077887259 L 308.5200127021024 467.3044419613419 L 307.58630342595256 469.04249975414905 L 306.7017708697375 470.80951017755154 L 305.8676192191035 472.60403685951866 L 305.08499766368345 474.4245803454913 L 304.35499646014335 476.2695806901717 L 303.67864313554014 478.1374203349977 L 303.0568988546538 480.0264272628921 L 302.4906549744179 481.93487841967215 L 301.98072980781126 483.8610033893385 L 301.5278656185843 485.80298830834874 L 301.1327258669842 487.7589800019593 L 300.79589272521787 489.72709032380266 L 300.5178648797677 491.70540067809355 L 300.2990556358614 493.69196670223386 L 300.139791337415 495.68482308615364 L 300.04031011363736 497.68198850348523 L 300.0007609612244 499.6814706286497 L 300.0212031687118 501.6812712131454 L 300.10160608711993 503.67939119378497 L 300.24184924853887 505.67383580532993 L 300.4417228318019 507.66261966993375 L 300.7009284719012 509.64377183601493 L 301.0190804073461 511.61534073965333 L 301.3957069572772 513.5753990623086 L 301.83025231785507 515.5220484596123 L 302.3220786652688 517.4534241371497 L 302.8704685506765 519.3676992505282 L 303.47462757052006 521.2630891085872 L 304.13368729397297 523.1378551603373 L 304.8467084277874 524.9903087480877 L 305.61268419752776 526.818814611214 L 306.4305439231207 528.621794127103 L 307.29915676581265 530.3977282779662 L 308.2173356230219 532.1451603344067 L 309.1838411471903 533.8626982488383 L 310.1973858645856 535.5490167540559 L 311.25663837006573 537.202859164424 L 312.36022757408705 538.8230388792695 L 313.50674697870505 540.408440590093 L 314.69475895996584 541.958021195166 L 315.9227990349059 543.470810426899 L 317.1893800923468 544.9459111990827 L 318.4929965677736 546.3824996826589 L 319.83212854380577 547.7798251201039 L 321.20524575908064 549.1372093897646 L 322.61081150976383 550.4540463326002 L 324.0472864293455 551.7298008547122 L 325.51313213387425 552.9640078198396 L 327.00681472128724 554.1562707466088 L 328.52680811501386 555.3062603257932 L 330.0715972435312 556.413712773155 L 331.63968104903705 557.4784280336079 L 333.22957531983934 558.5002678524754 L 334.83981534246254 559.4791537295276 L 336.4689583707995 560.4150647712686 L 338.11558591090545 561.3080354566326 L 339.7783058212202 562.1581533308367 L 341.4557542291134 562.9655566416424 L 343.1465972656723 563.730431931712 L 344.8495326215889 564.4530116001167 L 346.5632909278482 565.1335714453717 L 348.28663696567526 565.7724282016543 L 350.0183707108699 566.3699370791101 L 351.7573282182302 566.9264893183756 L 353.50238235226635 567.4425097686677 L 355.25244337080886 567.9184544979914 L 357.0064593684558 568.3548084432393 L 358.7634165870503 568.752083107171 L 360.5223396005743 569.1108143085033 L 362.282291381958 569.4315599905989 L 364.04237325936936 569.7148980935212 L 365.80172476954806 569.9614244935392 L 367.55952341570526 570.1717510135045 L 369.3149843374165 570.346503506901 L 371.0673598998063 570.4863200177824 L 372.8159392091513 570.5918490182568 L 374.56004756183745 570.6637477246697 L 376.29904583337753 570.702680493161 L 378.0323298139534 570.7093172948323 L 379.7593294966828 570.6843322703667 L 381.4795083245333 570.6284023635753 L 383.1923624015208 570.5422060330272 L 384.8974196735311 570.4264220406181 L 386.59423908380825 570.2817283156858 L 388.2824097078491 570.1088008930454 L 389.9615498721455 569.9083129231315 L 391.6313062609154 569.6809337522567 L 393.2913530146741 569.4273280708662 L 394.94139082420685 569.148155127546 L 396.5811460232257 568.8440680064539 L 398.2103696827215 568.5157129657698 L 399.8288367097624 568.1637288347144 L 401.4363449532346 567.7887464666479 L 403.0327143187849 567.3913882457474 L 404.6177858949915 566.9722676447587 L 406.19142109257524 566.5319888313293 L 407.75350079825137 566.0711463204503 L 409.30392454463583 565.5903246705735 L 410.8426096974286 565.090098221005 L 412.36949066093155 564.5710308682319 L 413.88451810279514 564.0336758788949 L 415.38765819874203 563.4785757371762 L 416.8788918978746 562.9062620244486 L 418.35821420905006 562.3172553290909 L 419.8256335086853 561.7120651844607 L 421.28117087025043 561.091190033077 L 422.7248594156065 560.4551172151587 L 424.1567436882599 559.804322979726 L 425.5768790485178 559.1392725165665 L 426.9853310904613 558.4604200074331 L 428.3821750805836 557.7682086949284 L 429.76749541788604 557.0630709676008 L 431.14138511516586 556.3454284598589 L 432.50394530119166 555.6156921653815 L 433.85528474341504 554.8742625627749 L 435.19551939083834 554.1215297523012 L 436.5247719366222 553.3578736025686 L 437.84317139999587 552.5836639061437 L 439.15085272701003 551.7992605431078 L 440.4479564096543 551.0050136516452 L 441.7346281228479 550.2012638048068 L 443.0110183788016 549.3883421926563 L 444.27728219824 548.5665708090534 L 445.5335787979708 547.7362626423892 L 446.78007129428033 546.897721869634 L 448.01692642163886 546.0512440531077 L 449.2443142661962 545.1971163394281 L 450.4624080135556 544.3356176601374 L 451.6713837103123 543.4670189335443 L 452.87142003885515 542.591583267365 L 454.0626981049327 541.7095661617731 L 455.245401237493 540.8212157125158 L 456.41971480031896 539.9267728137742 L 457.58582601498495 539.0264713604843 L 458.7439237946748 538.1205384498641 L 459.8941985884104 537.2091945819132 L 461.0368422352513 536.2926538586856 L 462.1720478280357 535.3711241821529 L 463.3000095862473 534.4448074505028 L 464.4209227376016 533.5138997527362 L 465.534983407959 532.5785915614457 L 466.642388519182 531.6390679236797 L 467.743335694567 530.695508649808 L 468.83802317149116 529.7480885003267 L 469.92664972092973 528.7969773705505 L 471.00941457350507 527.8423404731566 L 472.08651735174504 526.884338518556 L 473.15815800823617 525.9231278930813 L 474.2245367693698 524.9588608349887 L 475.2858540843869 523.991685608284 L 476.3423105794402 523.021746674392 L 477.39410701640094 522.0491848616955 L 478.44144425614684 521.0741375329784 L 479.48452322607636 520.0967387508174 L 480.52354489160507 519.1171194409706 L 481.55871023140605 518.1354075538165 L 482.5902202161654 517.1517282239089 L 483.6182757906324 516.1662039277082 L 484.6430778587491 515.1789546395655 L 485.66482727165237 514.1900979860318 L 486.68372481834774 513.1997493985717 L 487.69997121886144 512.2080222647659 L 488.71376711967997 511.2150280780862 L 489.7253130912953 510.2208765863356 L 490.7348096276757 509.225675938841 L 491.742457147491 508.2295328324951 L 492.74845599691906 507.2325526567433 L 493.7530064538706 506.2348396376125 L 494.756308733468 505.236496980883 L 495.75856299462083 504.23762701450204 L 496.75996934753925 503.23833133034464 L 497.76072786203287 502.2387109254214 L 498.7610385764417 501.2388663426407 L 499.76110150704915 500.23889781122716 L 500.76111665782724 499.23890538690443 L 501.76128403036523 498.2389890919458 L 502.76180363383355 497.23924905520033 L 503.7628754948356 496.2397856521986 L 504.7646996669976 495.240699645446 L 505.7674762401489 494.2420923250074 L 506.77140534894136 493.2440656494887 L 507.77668718075745 492.24672238752106 L 508.7835219827535 491.2501662598494 L 509.79211006788154 490.2545020821291 L 510.802651819734 489.25983590853326 L 511.8153476960478 488.26627517626946 L 512.8303982307065 487.273928851105 L 513.8480040340704 486.2829075739985 L 514.8683657914642 485.293323808932 L 515.8916842596444 484.3052919920372 L 516.9181602610688 483.3189286821046 L 517.9479946757773 482.334352712565 L 518.9813884306953 481.35168534502606 L 520.0185424861617 480.3710504244465 L 521.0596578194761 479.39257453602335 L 522.1049354052561 478.41638716386734 L 523.154576192385 477.4426208515331 L 524.208781077326 476.47141136447016 L 525.2677508735698 475.50289785444954 L 526.3316862769725 474.53722302602176 L 527.400787826736 473.5745333050498 L 528.4752558617699 472.6149790093564 L 529.5552904721695 471.6587145215165 L 530.6410914455283 470.7058984638183 L 531.732858207801 469.75669387540603 L 532.8307897584172 468.8112683916086 L 533.935084599336 467.869794425448 L 535.0459406577273 466.9324493513084 L 536.1635552019417 465.9994156907372 L 537.2881247504349 465.07088130033344 L 538.4198449732893 464.1470395616661 L 539.5589105859696 463.22808957314874 L 540.7055152349359 462.3142363437812 L 541.8598513747265 461.405690988651 L 543.0221101361108 460.50267092606725 L 544.1924811849002 459.6054000761807 L 545.371152570995 458.71410906092126 L 546.5583105672322 457.8290354050612 L 547.7541394975885 456.9504237381866 L 548.9588215542831 456.07852599733474 L 550.1725366033128 455.21360163002464 L 551.3954619779432 454.3559177973806 L 552.6277722596701 453.50574957701446 L 553.8696390461586 452.6633801652992 L 555.1212307056561 451.82910107863137 L 556.3827121173748 451.00321235324117 L 557.654244397327 450.18602274306886 L 558.9359846091016 449.37784991518384 L 560.2280854590593 448.57902064217916 L 561.5306949754296 447.78987099092626 L 562.8439561707929 447.01074650702554 L 564.1680066874338 446.242002394238 L 565.5029784250617 445.48400368812656 L 566.8489971503968 444.73712542308283 L 568.2061820881435 444.0017527918527 L 569.5746454928758 443.2782812966159 L 570.9544922013907 442.56711689060734 L 572.3458191650994 441.8686761092074 L 573.748714962061 441.18338618935474 L 575.1632592882909 440.511685176069 L 576.5895224280187 439.8540220147966 L 578.0275647026075 439.21085662821986 L 579.4774358979016 438.58265997609425 L 580.9391746698209 437.9699140966013 L 582.4128079280863 437.37311212762717 L 583.898350198025 436.7927583062991 L 585.3958029604878 436.229367945033 L 586.9051539699899 435.68346738226666 L 588.4263765512875 435.155593905975 L 589.9594288746985 434.64629564798895 L 591.5042532105925 434.15613144706265 L 593.0607751635985 433.6856706785638 L 594.6289028872078 433.2354930485904 L 596.208526279596 432.8061883502568 L 597.7995161616416 432.3983561798275 L 599.4017234382849 432.01260561032905 L 601.0149782445458 431.6495548202205 L 602.639089077713 431.30983067466576 L 604.273841917412 430.9940682569274 L 605.9189993354751 430.7029103473771 L 607.5742995977594 430.4370068476208 L 609.2394557602977 430.19701414724113 L 610.9141547624046 429.98359443068654 L 612.5980565196284 429.79741492187844 L 614.2907930196974 429.6391470641679 L 615.9919674248908 429.50946563335555 L 617.7011531845428 429.4090477815919 L 619.4178931616844 429.33857201010204 L 621.1416987781181 429.2987170688357 L 622.8720491825264 429.2901607813202 L 624.6083904465075 429.3135787932101 L 626.3501347937396 429.3696432432665 L 628.0966598677676 429.45902135577336 L 629.8473080442016 429.58237395371026 L 631.6013857933924 429.74035389234257 L 633.3581630999286 429.93360441327206 L 635.1168729455437 430.16275741941064 L 636.8767108622671 430.42843167179416 L 638.6368345628531 430.73123090964964 L 640.3963636557121 431.07174189566047 L 642.1543794517135 431.45053238894565 L 643.9099248703396 431.8681490488741 L 645.6620044527466 432.3251152734775 L 647.4095844892952 432.8219289768982 L 649.1515932690958 433.3590603110147 L 650.8869214590118 433.9369493371141 L 652.6144226194173 434.55600365423993 L 654.3329138637771 435.2165959916079 L 656.0411766688285 435.9190617732718 L 657.737957841766 436.66369666400567 L 659.4219706503843 437.4507541061628 L 661.0918961215856 438.2804428580445 L 662.7463845130487 439.15292454508216 L 664.384056962127 440.06831123586505 L 666.0035073152526 441.0266630557554 L 667.6033041402211 442.0279858514791 L 669.181992922755 443.0722289206839 L 670.7380984476695 444.1592828209859 L 672.2701273638186 445.28897727347805 L 673.7765709307611 446.46107917603393 L 675.255907943793 447.67529074200434 L 676.7066078326183 448.93124778005165 L 678.1271339275186 450.2285181308956 L 679.5159468854097 451.56660027663827 L 680.8715082666847 452.944922138094 L 682.1922842522279 454.3628400751566 L 683.4767494884679 455.81963810469074 L 684.7233910468414 457.31452734973215 L 685.9307124825625 458.8466457329124 L 687.0972379761779 460.41505792600174 L 688.2215165400314 462.0187555662702 L 689.302126270497 463.6566577490289 L 690.3376786256774 465.32761180420925 L 691.3268227072315 467.03039436320455 L 692.2682495240991 468.76371272042473 L 693.1606962151633 470.5262064921244 L 694.0029502073265 472.3164495730697 L 694.7938532851208 474.13295238953174 L 695.532305547801 475.97416444494706 L 696.217269229929 477.838477152399 L 696.8477723617209 479.72422694585947 L 697.4229122459353 481.62969865993006 L 697.9418587288 483.5531291656388 L 698.4038572434337 485.4927112477346 L 698.8082316053906 487.44659770687315 L 699.1543865413468 489.4129056681622 L 699.4418099335443 491.38972107572795 L 699.6700747643883 493.3751033513255 L 699.8388407475544 495.36709019353896 L 699.9478556340671 497.36370249285653" /><circle cx="500" cy="500" r="100.0" /><circle cx="500" cy="500" r="161.80339887498948" /><circle cx="500" cy="500" r="261.8033988749895" /><circle cx="500" cy="500" r="423.60679774997897" /><circle cx="500" cy="500" r="685.4101966249685" /><text x="100" y="900" font-size="80.90169943749474">⚡</text><text x="200" y="900" font-size="80.90169943749474">𓂧</text><text x="300" y="900" font-size="80.90169943749474">φ</text><text x="400" y="900" font-size="80.90169943749474">∞</text></g></svg>