<?xml version="1.0" encoding="utf-8" ?>
<svg baseProfile="tiny" height="100%" version="1.2" width="100%" xmlns="http://www.w3.org/2000/svg" xmlns:ev="http://www.w3.org/2001/xml-events" xmlns:xlink="http://www.w3.org/1999/xlink"><defs /><g id="yinyang"><text font-size="100" x="0" y="0">☯</text><circle cx="10.0" cy="0.0" r="2.5" /><circle cx="-0.9444" cy="19.9777" r="5.0" /><circle cx="-29.8662" cy="-2.83" r="7.5" /><circle cx="5.6496" cy="-39.599" r="10.0" /><circle cx="49.1101" cy="9.3914" r="12.5" /><circle cx="-14.0399" cy="58.3342" r="15.0" /><circle cx="-67.2072" cy="-19.5753" r="17.5" /><circle cx="25.9737" cy="-75.6662" r="20.0" /></g><g id="om"><text font-size="100" x="0" y="100">ॐ</text><circle cx="10.0" cy="0.0" r="2.5" /><circle cx="-0.9444" cy="19.9777" r="5.0" /><circle cx="-29.8662" cy="-2.83" r="7.5" /><circle cx="5.6496" cy="-39.599" r="10.0" /><circle cx="49.1101" cy="9.3914" r="12.5" /><circle cx="-14.0399" cy="58.3342" r="15.0" /><circle cx="-67.2072" cy="-19.5753" r="17.5" /><circle cx="25.9737" cy="-75.6662" r="20.0" /></g><g id="infinity"><text font-size="100" x="0" y="200">∞</text><circle cx="10.0" cy="0.0" r="2.5" /><circle cx="-0.9444" cy="19.9777" r="5.0" /><circle cx="-29.8662" cy="-2.83" r="7.5" /><circle cx="5.6496" cy="-39.599" r="10.0" /><circle cx="49.1101" cy="9.3914" r="12.5" /><circle cx="-14.0399" cy="58.3342" r="15.0" /><circle cx="-67.2072" cy="-19.5753" r="17.5" /><circle cx="25.9737" cy="-75.6662" r="20.0" /></g><g id="wheel"><text font-size="100" x="0" y="300">☸</text><circle cx="10.0" cy="0.0" r="2.5" /><circle cx="-0.9444" cy="19.9777" r="5.0" /><circle cx="-29.8662" cy="-2.83" r="7.5" /><circle cx="5.6496" cy="-39.599" r="10.0" /><circle cx="49.1101" cy="9.3914" r="12.5" /><circle cx="-14.0399" cy="58.3342" r="15.0" /><circle cx="-67.2072" cy="-19.5753" r="17.5" /><circle cx="25.9737" cy="-75.6662" r="20.0" /></g><g id="unity"><text font-size="100" x="0" y="400">☯</text><circle cx="10.0" cy="0.0" r="2.5" /><circle cx="-0.9444" cy="19.9777" r="5.0" /><circle cx="-29.8662" cy="-2.83" r="7.5" /><circle cx="5.6496" cy="-39.599" r="10.0" /><circle cx="49.1101" cy="9.3914" r="12.5" /><circle cx="-14.0399" cy="58.3342" r="15.0" /><circle cx="-67.2072" cy="-19.5753" r="17.5" /><circle cx="25.9737" cy="-75.6662" r="20.0" /></g></svg>