<?xml version="1.0" encoding="utf-8" ?>
<svg xmlns="http://www.w3.org/2000/svg" xmlns:ev="http://www.w3.org/2001/xml-events" xmlns:xlink="http://www.w3.org/1999/xlink" baseProfile="tiny" height="1000" version="1.2" width="1000">
  <defs/>
  <circle cx="1173.1804" cy="500.0" r="190.983"/>
  <circle cx="836.5902" cy="1082.9913" r="190.983"/>
  <circle cx="163.4098" cy="1082.9913" r="190.983"/>
  <circle cx="-173.1804" cy="500.0" r="190.983"/>
  <circle cx="163.4098" cy="-82.9913" r="190.983"/>
  <circle cx="836.5902" cy="-82.9913" r="190.983"/>
  <path d="M 1173.1804100174347,500.0 L 1180.3774880629753,511.8760332298368 L 1187.4419980308433,524.0060035521816 L 1194.36804273792,536.3902871250062 L 1201.1496553173115,549.0291600916307 L 1207.7808002377758,561.922796282112 L 1214.2553743745998,575.0712649080417 L 1220.567208132592,588.4745282515921 L 1226.7100666218494,602.1324393496652 L 1232.6776508869534,616.0447396740261 L 1238.4635991902312,630.2110568083195 L 1244.0614883497171,644.630902122889 L 1249.4648351324422,659.3036684483419 L 1254.6670977036572,674.228627748822 L 1259.6616771326007,689.4049287959725 L 1264.4419189553987,704.8315948445968 L 1269.0011147956793,720.5075213110404 L 1273.3325040434702,736.4314734553425 L 1277.4292755929391,752.6020840682262 L 1281.2845696395125,769.0178511640165 L 1284.8914795369142,785.6771356805968 L 1288.2430537146315,802.5781591875364 L 1291.3322976563134,819.7190016035431 L 1294.15217593959,837.097598924415 L 1296.695614337781,854.7117409626867 L 1298.955501983952,872.559069100188 L 1300.924693597753,890.6370740547516 L 1302.596011775467,908.9430936623307 L 1303.9622493436661,927.4743106758049 L 1305.0161717768644,946.2277505817731 L 1305.750519679536,965.2002794366609 L 1306.1580113328391,984.3886017234768 L 1306.231345306382,1003.7892582305841 L 1305.9632031353324,1023.3986239538725 L 1305.346252063156,1043.2129060237266 L 1304.3731478502527,1063.2281416582205 L 1303.0365376487266,1083.440196143978 L 1301.329062943513,1103.844760846161 L 1299.2433625600584,1124.4373512490706 L 1296.7720757387183,1145.2133050288567 L 1293.9078452760302,1166.167780159866 L 1290.6433207329737,1187.2957530561553 L 1286.9711617103187,1208.5920167497402 L 1282.88404119113,1230.0511791071472 L 1278.3746489504692,1251.667661085865 L 1273.435695032311,1273.435695032311 L 1268.0599132936572,1295.3493230229383 L 1262.2400650158058,1317.4023952501298 L 1255.9689425827082,1339.5885684545474 L 1249.239373226304,1361.901304405611 L 1242.0442228387078,1384.3338684318087 L 1234.376399851078,1406.8793280025438 L 1226.2288591789763,1429.5305513632566 L 1217.594606233985,1452.2802062255466 L 1208.46670100132,1475.1207585140735 L 1198.8382621831497,1498.0444711719883 L 1188.702471407279,1521.0434030266933 L 1178.0525775008443,1544.109407717722 L 1166.8819008286089,1567.2341326885523 L 1155.1838376954297,1590.4090182441755 L 1142.9518648124138,1613.6252966762565 L 1130.1795438262598,1636.8739914577336 L 1116.860525911231,1660.1459165087088 L 1102.9885564231722,1683.4316755355032 L 1088.5574796149447,1706.7216614447495 L 1073.5612434126092,1730.0060558344082 L 1057.9939042516544,1753.2748285636037 L 1041.8496319725145,1776.5177374031778 L 1025.1227147745956,1799.724327768877 L 1007.8075642279691,1822.8839325390773 L 989.8987203418635,1845.9856719589843 L 971.3908566890343,1869.0184536332179 L 952.2787855850496,1891.9709726087233 L 932.557463321486,1914.83171154994 L 912.2219954519833,1937.588941008168 L 891.2676421300599,1960.2307197870607 L 869.6898234975499,1982.7448954062038 L 847.4841251224677,2005.1191046647064 L 824.6463034850716,2027.3407743067469 L 801.1722915108312,2049.3971217910266 L 777.0582041489816,2071.2751561660507 L 752.3003439952735,2092.961679053192 L 726.895206957494,2114.4432857394486 L 700.8394879622807,2135.7063663818476 L 674.1300867017035,2156.737107325385 L 646.7641134180276,2177.5214925364535 L 618.7388947250394,2198.045305153636 L 590.0519794642469,2218.2941291577836 L 560.7011445942303,2238.253351163256 L 530.6844011113523,2257.9081623322136 L 500.0000000000001,2277.2435604138313 L 468.64643821046207,2296.2443519102762 L 436.62246466251,2314.89515437131 L 403.9270862726793,2333.1803988193346 L 370.55957400321125,2351.0843323066933 L 336.5194689305487,2368.5910206070275 L 301.80658833122845,2385.6843510424665 L 266.42103178296406,2402.34803544841 L 230.36318727865608,2418.565613277633 L 193.6337373510005,2434.3204548454505 L 156.233665205332,2449.595764717616 L 118.1642608582589,2464.374585242636 L 79.42712727962055,2478.639800230149 L 40.02418653520755,2492.374138776979 L -0.042314072336580466,2505.5601792424695 L -40.76979586709399,2518.1803533746443 L -82.15534267064038,2530.216950588746 L -124.19569468276438,2541.652122399648 L -166.88724237495433,2552.4678870096004 L -210.226020399542,2562.646134052762 L -254.20770151742784,2572.168629497905 L -298.82759054737335,2581.01702071066 L -344.08061833991917,2589.172841676632 L -389.96133577901446,2596.6175183866594 L -436.4639078145292,2603.332374385481 L -483.5821075288451,2609.2986364849858 L -531.3093102408129,2614.4974406432325 L -579.6384876503823,2618.9098380103337 L -628.5622020272974,2622.5168011422734 L -678.0726004472797,2625.2992303836845 L -728.1614090791911,2627.2379604205444 L -778.8199275267286,2628.3137670037104 L -830.0390232282268,2628.5073738441642 L -881.8091259182497,2627.799459680766 L -934.1202221546341,2626.1706655212815 L -986.9618499147887,2623.6016020573743 L -1040.3230932650167,2620.0728572542025 L -1094.1925771067458,2615.5650041152026 L -1148.5584620035784,2610.058608622572 L -1203.4084390931134,2603.534237853897 L -1258.7297250875674,2595.9724682753354 L -1314.5090573672396,2587.3538942116456 L -1370.7326891709608,2577.6591364933392 L -1427.3863848876676,2566.868851281125 L -1484.4554154533112,2554.9637390677635 L -1541.9245538573682,2541.9245538573687 L -1599.7780707632428,2527.732112522117 L -1657.9997302469192,2512.367304336257 L -1716.572785658254,2495.8111006872214 L -1775.479975609334,2478.044564963585 L -1834.7035200943806,2459.048862619493 L -1894.2251167457493,2438.805271415161 L -1954.0259372305268,2417.295191832887 L -2014.0866237923888,2394.500157668014 L -2074.3872859433086,2370.401846794112 L -2134.907497309828,2344.9820921016235 L -2195.626292638577,2318.2228926090957 L -2256.5221649657965,2290.106424746028 L -2317.573062955659,2260.615053806281 L -2378.7563884121914,2229.7313455708945 L -2440.0489939696267,2197.4380780990523 L -2501.4271809660904,2163.7182536858722 L -2562.8666975055085,2128.555110985526 L -2624.3427367126606,2091.9321372981726 L -2685.8299351863443,2053.8330810190455 L -2747.3023716556186,2014.2419642479044 L -2808.7335658441475,1973.1430955570156 L -2870.0964775476377,1930.5210829156717 L -2931.363505929424,1886.3608467691577 L -2992.50648903926,1840.6476332699833 L -3053.496703560394,1793.367027659055 L -3114.3048647899936,1744.5049677943664 L -3174.9011268580434,1694.047757824681 L -3235.25508318979,1641.9820820055409 L -3295.335767216894,1588.2950186548117 L -3355.1116533423688,1532.974054244899 L -3414.550658164439,1476.007097628598 L -3473.620141964473,1417.3824943954403 L -3532.286910464076,1357.0890413552802 L -3590.5172168564873,1295.1160011457246 L -3648.276764117404,1231.4531169599027 L -3705.53070760031,1166.0906273909268 L -3762.2436579214645,1099.0192813892581 L -3818.3796841395833,1030.2303533291029 L -3873.9023172353163,959.7156581797893 L -3928.7745538955833,887.4675667779469 L -3982.958860607784,813.4790211962152 L -4036.417178068912,737.7435502040321 L -4089.1109259145696,660.2552848159224 L -4141.0010077728275,581.0089739225976 L -4192.047816647882,500.00000000000057 L -4242.211240638411,417.2243948913348 L -4291.450668995462,332.6788556569294 L -4339.724998524752,246.36076048669918 L -4386.992640338127,158.26818466975868 L -4433.211526958929,68.3999166156816 L -4478.3391197859755,-23.244526078303693 L -4522.332416920786,-116.66488052004365 L -4565.147961362656,-211.86012238102455 L -4606.741849576097,-308.8284497269967 L -4647.069740435146,-407.56726682683245 L -4686.086864548907,-508.0731679460773 L -4723.748033972744,-610.341921131783 L -4760.007652309331,-714.3684519952751 L -4794.819725203791,-820.1468274997387 L -4828.137871237073,-927.6702397596525 L -4859.915333221605,-1036.9309898591775 L -4890.104989903121,-1147.9204716968047 L -4918.659368072702,-1260.6291558637763 L -4945.5306550926125,-1375.0465735637472 L -4970.670711839826,-1491.161300581593 L -4994.031086070687,-1608.9609413091025 L -5015.563026210308,-1728.4321128356864 L -5035.217495570041,-1849.5604291122809 L -5052.945186996331,-1972.3304851967373 L -5068.696537954107,-2096.7258415892265 L -5082.421746047816,-2222.7290086662542 L -5094.070784982955,-2350.321431222088 L -5103.593420971017,-2479.4834731265014 L -5110.939229580447,-2610.194402107867 L -5116.057613036231,-2742.432374670916 L -5118.8978179704945,-2876.1744211583596 L -5119.408953626446,-3011.3964309660287 L -5117.5400105177305,-3148.0731379210374 L -5113.23987954525,-3286.1781058328265 L -5106.457371573271,-3425.6837142269974 L -5097.141237466488,-3566.5611442719555 L -5085.240188589604,-3708.780364908587 L -5070.702917770751,-3852.3101191933156 L -5053.478120729972,-3997.1179108649476 L -5033.51451797379,-4143.169991145931 L -5010.760877156694,-4290.431345788831 L -4985.166035910221,-4438.865682378714 L -4956.678925140109,-4588.4354179025895 L -4925.248592791825,-4739.10166659694 L -4890.824228084574,-4890.8242280845725 L -4853.355186213652,-5043.561575812192 L -4812.791013520918,-5197.270845800145 L -4769.081473132799,-5351.907825715923 L -4722.176571065195,-5507.4269442831355 L -4672.026582794295,-5663.781261037853 L -4618.582080292179,-5820.9224564440865 L -4561.793959525869,-5978.800822380611 L -4501.613468418166,-6137.365253011226 L -4437.992235268522,-6296.563236050628 L -4370.882297631814,-6456.34084443832 L -4300.236131652785,-6616.642728432995 L -4226.006681853546,-6777.41210813989 L -4148.147391371394,-6938.590766483726 L -4066.6122326438535,-7100.119042640052 L -3981.35573853767,-7261.935825937586 L -3892.333033918175,-7423.978550244611 L -3799.499867655234,-7586.183188852251 L -3702.8126450615673,-7748.484249867717 L -3602.228460759223,-7910.81477213055 L -3497.705131969426,-8073.106321665 L -3389.2012322209357,-8235.288988681816 L -3276.676125471701,-8397.29138514259 L -3160.0900006382226,-8559.0406429001 L -3039.4039065269526,-8720.462412427874 L -2914.5797871615187,-8881.480862152423 L -2785.580517499425,-9042.01867840159 L -2652.3699395315557,-9201.997065982414 L -2514.9128987573527,-9361.335749402084 L -2373.175281028479,-9519.95297474539 L -2227.1240497532676,-9677.765512222195 L -2076.7272834539185,-9834.688659398586 L -1921.9542136682958,-9990.636245125062 L -1762.7752631876015,-10145.520634175398 L -1599.1620846210312,-10299.252732609697 L -1431.087599278096,-10451.741993875074 L -1258.5260363590712,-10602.896425657573 L -1081.4529724434526,-10752.622597498694 L -899.8453712663595,-10900.825649189976 L -713.6816237719595,-11047.409299959094 L -522.941588433158,-11192.275858460753 L -327.60663182604446,-11335.326233585678 L -127.65966944745048,-11476.459946101 L 76.91479323646132,-11615.575141135176 L 286.1306195230187,-11752.568601520557 L 499.9999999999977,-11887.335762006585 L 718.5334108800387,-12019.770724356675 L 941.7395721558463,-12149.766273341476 L 1169.6254055901657,-12277.213893641365 L 1402.195992554914,-12402.003787670803 L 1639.4545317339016,-12524.024894336973 L 1881.4022967043368,-12643.164908745246 L 2128.038593412466,-12759.31030286358 L 2379.3607175590732,-12872.346347158087 L 2635.363911911188,-12982.157133211707 L 2896.041323556324,-13088.625597337767 L 3161.383961116353,-13191.633545200148 L 3431.380651938268,-13291.06167745141 L 3706.0179992795966,-13386.789616400336 L 3985.280339506454,-13478.69593371984 L 4269.149699322963,-13566.658179206235 L 4557.605753050566,-13650.552910600501 L 4850.625779976905,-13730.255724482065 L 5148.184621793571,-13805.641288245266 L 5450.254640143016,-13876.583373168583 L 5756.805674294959,-13942.954888586357 L 6067.804998973173,-14004.62791717253 L 6383.217282353833,-14061.473751345522 L 6703.004544257029,-14113.362930803425 L 7027.126114553622,-14160.165281197964 L 7355.53859180947,-14201.749953955754 L 7688.195802190256,-14237.985467254854 L 8025.048758649705,-14268.739748164411 L 8366.045620424939,-14293.880175954802 L 8711.131652862845,-14313.273626585375 L 9060.249187601828,-14326.786518376568 L 9413.33758313345,-14334.28485887276 L 9770.33318576941,-14335.63429290192 L 10131.169291038816,-14330.700151837626 L 10495.776105541972,-14319.347504068837 L 10864.080709286673,-14301.441206682162 L 11236.00701853349,-14276.845958361131 L 11611.475749177305,-14245.426353506522 L 11990.404380691874,-14207.046937581252 L 12372.707120665364,-14161.572263683112 L 12758.294869954892,-14108.866950347921 L 13147.075188488121,-14048.795740585438 L 13538.952261740786,-13981.223562149742 L 13933.826867919126,-13906.015589045377 L 14331.596345876462,-13823.037304269974 L 14732.154563793729,-13732.154563793736 L 15135.391888653752,-13633.233661775444 L 15541.195156539905,-13526.14139701418 L 15949.44764378924,-13410.745140635565 L 16360.029039031655,-13286.912905010455 L 16772.81541614566,-13154.51341390379 L 17187.67920816274,-13013.4161738505 L 17604.48918215185,-12863.491546754896 L 18023.110415116225,-12704.610823709287 L 18443.40427093464,-12536.646300027049 L 18865.22837838006,-12359.471351484613 L 19288.43661024819,-12172.960511766472 L 19712.879063629152,-11976.989551106246 L 20138.402041355574,-11771.4355561167 L 20564.84803466093,-11556.177010800304 L 20992.055707081123,-11331.093878732108 L 21419.859879634394,-11096.067686404973 L 21848.09151731264,-10850.981607727539 L 22276.577716919368,-10595.720549663709 L 22705.141696288247,-10330.171239002399 L 23133.602784917075,-10054.222310245153 L 23561.77641605247,-9767.764394598444 L 23989.47412025934,-9470.690210057379 L 24416.503520511535,-9162.894652565525 L 24842.668328837448,-8844.27488823638 L 25267.76834455741,-8514.730446619587 L 25691.59945414707,-8174.16331499572 L 26113.95363276326,-7822.478033681193 L 26534.6189474671,-7459.581792325654 L 26953.379562180722,-7085.384527181695 L 27370.015744413005,-6699.799019327014 L 27784.30387378963,-6302.740993818432 L 28196.016452424068,-5894.129219754991 L 28604.922117164388,-5473.8856112282365 L 29010.78565375214,-5041.935329135566 L 29413.368012928506,-4598.206883832421 L 29812.42632852404,-4142.632238597489 L 30207.713937566532,-3675.146913885482 L 30598.980402443594,-3195.6900923391863 L 30985.971535154415,-2704.204724533584 L 31368.42942368643,-2200.637635422639 L 31746.092460551958,-1684.9396314585383 L 32118.695373519444,-1157.06560835314 L 32485.969258574733,-616.9746594488124 L 32847.64161514612,-64.63018466711901"/>
</svg>
