<?xml version="1.0" encoding="UTF-8"?>
<svg xmlns="http://www.w3.org/2000/svg" width="1000" height="1000">
  <!-- Sacred Geometry Base (432 Hz) -->
  <g id="sacred_base" transform="translate(500,500)">
    <!-- Flower of Life -->
    <circle cx="0" cy="0" r="100" fill="none" stroke="black"/>
    <circle cx="86.6" cy="50" r="100" fill="none" stroke="black"/>
    <circle cx="86.6" cy="-50" r="100" fill="none" stroke="black"/>
    <circle cx="0" cy="-100" r="100" fill="none" stroke="black"/>
    <circle cx="-86.6" cy="-50" r="100" fill="none" stroke="black"/>
    <circle cx="-86.6" cy="50" r="100" fill="none" stroke="black"/>
    <circle cx="0" cy="100" r="100" fill="none" stroke="black"/>
    
    <!-- Seed of Life -->
    <circle cx="0" cy="0" r="50" fill="none" stroke="black"/>
    <circle cx="43.3" cy="25" r="50" fill="none" stroke="black"/>
    <circle cx="43.3" cy="-25" r="50" fill="none" stroke="black"/>
    <circle cx="0" cy="-50" r="50" fill="none" stroke="black"/>
    <circle cx="-43.3" cy="-25" r="50" fill="none" stroke="black"/>
    <circle cx="-43.3" cy="25" r="50" fill="none" stroke="black"/>
    <circle cx="0" cy="50" r="50" fill="none" stroke="black"/>
    
    <!-- Metatron's Cube -->
    <path d="M0,0 L86.6,50 L86.6,-50 L0,-100 L-86.6,-50 L-86.6,50 L0,100 Z" 
          fill="none" stroke="black"/>
    <path d="M0,0 L43.3,25 L43.3,-25 L0,-50 L-43.3,-25 L-43.3,25 L0,50 Z" 
          fill="none" stroke="black"/>
          
    <!-- Sacred Symbols -->
    <text x="-20" y="20" font-size="40">φ</text>
    <text x="10" y="20" font-size="40">∞</text>
  </g>
</svg>
