<?xml version="1.0" encoding="UTF-8"?>
<svg xmlns="http://www.w3.org/2000/svg" width="1000" height="1000">
  <!-- Sacred Alphabet Base (432 Hz) -->
  <defs>
    <!-- Sacred Base Pattern -->
    <pattern id="sacred_base" patternUnits="userSpaceOnUse" width="100" height="100">
      <circle cx="50" cy="50" r="40" fill="none" stroke="black" stroke-width="1"/>
      <circle cx="50" cy="50" r="30" fill="none" stroke="black" stroke-width="1"/>
      <path d="M20,50 L80,50 M50,20 L50,80" stroke="black" stroke-width="1" fill="none"/>
    </pattern>
  </defs>

  <!-- Letter Definitions -->
  <g id="sacred_letters">
    <!-- A -->
    <g transform="translate(0,0)">
      <path d="M50,0 L0,100 L100,100 Z" fill="url(#sacred_base)"/>
      <path d="M25,50 L75,50" stroke="black" stroke-width="2"/>
    </g>
    
    <!-- B -->
    <g transform="translate(120,0)">
      <path d="M0,0 L0,100 C50,100 100,75 100,50 C100,25 50,0 0,0 Z" fill="url(#sacred_base)"/>
    </g>

    <!-- C -->
    <g transform="translate(240,0)">
      <path d="M100,0 C0,0 0,100 100,100" fill="none" stroke="black" stroke-width="2"/>
      <use href="#sacred_base" x="20" y="20"/>
    </g>

    <!-- Continue for all letters, each with sacred geometry patterns -->
  </g>

  <!-- Sacred Symbols -->
  <g id="sacred_symbols" transform="translate(500,500)">
    <text x="-20" y="20" font-size="40">φ</text>
    <text x="10" y="20" font-size="40">∞</text>
    <text x="40" y="20" font-size="40">⚛</text>
  </g>
</svg>
