<svg xmlns="http://www.w3.org/2000/svg" width="1618.033988749895" height="1618.033988749895"><metadata>
        Quantum Font Pattern
        Family: flow
        Frequency: 528.0Hz
        Created by Greg
        </metadata><g id="flow_patterns"><path d="M 0 500.0 L 0 500.0 M 10 509.9833416646828 L 10 490.0166583353172 M 20 519.8669330795061 L 20 480.1330669204939 M 30 529.552020666134 L 30 470.4479793338661 M 40 538.9418342308651 L 40 461.058165769135 M 50 547.9425538604203 L 50 452.0574461395797 M 60 556.4642473395036 L 60 443.5357526604965 M 70 564.4217687237691 L 70 435.5782312762309 M 80 571.7356090899523 L 80 428.2643909100477 M 90 578.3326909627483 L 90 421.66730903725164 M 100 584.1470984807896 L 100 415.8529015192104 M 110 589.1207360061435 L 110 410.8792639938565 M 120 593.2039085967226 L 120 406.7960914032774 M 130 596.3558185417193 L 130 403.64418145828074 M 140 598.544972998846 L 140 401.455027001154 M 150 599.7494986604055 L 150 400.25050133959456 M 160 599.9573603041505 L 160 400.04263969584946 M 170 599.1664810452469 L 170 400.8335189547531 M 180 597.3847630878195 L 180 402.6152369121805 M 190 594.6300087687414 L 190 405.36999123125855 M 200 590.9297426825682 L 200 409.0702573174318 M 210 586.3209366648873 L 210 413.6790633351126 M 220 580.849640381959 L 220 419.15035961804097 M 230 574.570521217672 L 230 425.429478782328 M 240 567.5463180551151 L 240 432.4536819448849 M 250 559.8472144103956 L 250 440.1527855896043 M 260 551.5501371821464 L 260 448.44986281785356 M 270 542.737988023383 L 270 457.26201197661703 M 280 533.4988150155905 L 280 466.50118498440946 M 290 523.9249329213983 L 290 476.0750670786018 M 300 514.1120008059867 L 300 485.8879991940133 M 310 504.1580662433291 L 310 495.84193375667087 M 320 494.162585657242 L 320 505.837414342758 M 330 484.22543058567516 L 330 515.7745694143248 M 340 474.44588979731685 L 340 525.5541102026832 M 350 464.921677231038 L 350 535.0783227689619 M 360 455.7479556705148 L 360 544.2520443294852 M 370 447.01638590915064 L 370 552.9836140908493 M 380 438.8142109057281 L 380 561.1857890942719 M 390 431.2233840816026 L 390 568.7766159183974 M 400 424.3197504692072 L 400 575.6802495307928 M 410 418.17228889355897 L 410 581.827711106441 M 420 412.8424227586412 L 420 587.1575772413588 M 430 408.3834063250545 L 430 591.6165936749455 M 440 404.8397926110484 L 440 595.1602073889516 M 450 402.2469882334903 L 450 597.7530117665096 M 460 400.63089963665357 L 460 599.3691003633464 M 470 400.0076742435899 L 470 599.9923257564101 M 480 400.38353911641593 L 480 599.6164608835841 M 490 401.75473873756675 L 490 598.2452612624332 M 500 404.10757253368615 L 500 595.8924274663138 M 510 407.41853176722674 L 510 592.5814682327732 M 520 411.6545344279847 L 520 588.3454655720154 M 530 416.77325577760985 L 530 583.22674422239 M 540 422.7235512444013 L 540 577.2764487555987 M 550 429.4459674429608 L 550 570.5540325570392 M 560 436.87333621276787 L 560 563.1266637872321 M 570 444.93144574023626 L 570 555.0685542597638 M 580 453.53978205862427 L 580 546.4602179413756 M 590 462.6123335169764 L 590 537.3876664830236 M 600 472.0584501801074 L 600 527.9415498198925 M 610 481.7837495727904 L 610 518.2162504272096 M 620 491.69105971825036 L 620 508.30894028174976 M 630 501.681390048435 L 630 498.31860995156495 M 640 511.6549204850494 L 640 488.34507951495067 M 650 521.5119988087815 L 650 478.4880011912185 M 660 531.1541363513378 L 660 468.8458636486622 M 670 540.4849920616598 L 670 459.51500793834026 M 680 549.4113351138608 L 680 450.5886648861391 M 690 557.84397643882 L 690 442.15602356118 M 700 565.6986598718789 L 700 434.3013401281211 M 710 572.8969040125876 L 710 427.1030959874124 M 720 579.3667863849153 L 720 420.63321361508474 M 730 585.0436620628565 L 730 414.95633793714353 M 740 589.8708095811627 L 740 410.1291904188373 M 750 593.7999976774739 L 750 406.20000232252613 M 760 596.7919672031486 L 760 403.2080327968514 M 770 598.8168233877001 L 770 401.1831766123 M 780 599.8543345374605 L 780 400.1456654625395 M 790 599.8941341839773 L 790 400.1058658160228 M 800 598.9358246623382 L 800 401.0641753376618 M 810 596.9889810845086 L 810 403.0110189154914 M 820 594.0730556679773 L 820 405.9269443320227 M 830 590.2171833756294 L 830 409.78281662437064 M 840 585.459890808828 L 840 414.54010919117195 M 850 579.8487112623491 L 850 420.15128873765093 M 860 573.4397097874113 L 860 426.56029021258865 M 870 566.2969230082183 L 870 433.70307699178164 M 880 558.4917192891762 L 880 441.50828071082384 M 890 550.1020856457885 L 890 449.89791435421154 M 900 541.2118485241757 L 900 458.78815147582435 M 910 531.9098362349353 L 910 468.0901637650648 M 920 522.2889914100248 L 920 477.7110085899752 M 930 512.4454423507061 L 930 487.5545576492938 M 940 502.4775425453358 L 940 497.5224574546642 M 950 492.48488795381905 L 950 507.51511204618095 M 960 482.56732187770206 L 960 517.432678122298 M 970 472.82393735890577 L 970 527.1760626410942 M 980 463.3520870748072 L 980 536.6479129251928 M 990 454.24641062246786 L 990 545.7535893775321" /><text x="100" y="900" font-size="80.90169943749474">~</text><text x="200" y="900" font-size="80.90169943749474">@</text><text x="300" y="900" font-size="80.90169943749474">∞</text></g></svg>