<?xml version="1.0" encoding="utf-8" ?>
<svg baseProfile="tiny" height="100%" version="1.2" width="100%" xmlns="http://www.w3.org/2000/svg" xmlns:ev="http://www.w3.org/2001/xml-events" xmlns:xlink="http://www.w3.org/1999/xlink"><defs /><g id="ankh"><text font-size="43.2" x="0" y="0">☥</text><circle cx="68.7549" cy="0" r="68.7549" /><polygon points="0,-119.087 68.7549,119.087 -68.7549,119.087" /></g><g id="eye"><text font-size="43.2" x="0" y="86.4">👁️</text><circle cx="68.7549" cy="0" r="68.7549" /><polygon points="0,-119.087 68.7549,119.087 -68.7549,119.087" /></g><g id="feather"><text font-size="43.2" x="0" y="172.8">⚖️</text><circle cx="68.7549" cy="0" r="68.7549" /><polygon points="0,-119.087 68.7549,119.087 -68.7549,119.087" /></g><g id="lotus"><text font-size="43.2" x="0" y="259.20000000000005">🌱</text><circle cx="68.7549" cy="0" r="68.7549" /><polygon points="0,-119.087 68.7549,119.087 -68.7549,119.087" /></g><g id="sun"><text font-size="43.2" x="0" y="345.6">☀️</text><circle cx="68.7549" cy="0" r="68.7549" /><polygon points="0,-119.087 68.7549,119.087 -68.7549,119.087" /></g><g id="infinity"><text font-size="43.2" x="0" y="432.0">∞</text><circle cx="68.7549" cy="0" r="68.7549" /><polygon points="0,-119.087 68.7549,119.087 -68.7549,119.087" /></g><g id="spiral"><text font-size="43.2" x="0" y="518.4">🌀</text><circle cx="68.7549" cy="0" r="68.7549" /><polygon points="0,-119.087 68.7549,119.087 -68.7549,119.087" /></g><g id="star"><text font-size="43.2" x="0" y="604.8">⭐</text><circle cx="68.7549" cy="0" r="68.7549" /><polygon points="0,-119.087 68.7549,119.087 -68.7549,119.087" /></g><g id="crystal"><text font-size="43.2" x="0" y="691.1999999999999">💎</text><circle cx="68.7549" cy="0" r="68.7549" /><polygon points="0,-119.087 68.7549,119.087 -68.7549,119.087" /></g></svg>