<?xml version="1.0" encoding="utf-8" ?>
<svg baseProfile="tiny" height="100%" version="1.2" width="100%" xmlns="http://www.w3.org/2000/svg" xmlns:ev="http://www.w3.org/2001/xml-events" xmlns:xlink="http://www.w3.org/1999/xlink"><defs /><g id="wave"><text font-size="52.8" x="0" y="0">🌊</text><polyline fill="none" points="0,0.0 1,5.0381 2,8.7039 3,9.9991 4,8.5709 5,4.8082 6,-0.264 7,-5.2644 8,-8.8309 9,-9.9922 10,-8.4319 11,-4.575 12,0.5279 13,5.4871 14,8.9517 15,9.9782 16,8.287 17,4.3386 18,-0.7914 19,-5.7059 20,-9.0663 21,-9.9573 22,-8.1363 23,-4.0992 24,1.0543 25,5.9207 26,9.1745 27,9.9295 28,7.98 29,3.857 30,-1.3165 31,-6.1315 32,-9.2764 33,-9.8947 34,-7.8181 35,-3.612 36,1.5778 37,6.3379 38,9.3718 39,9.853 40,7.6507 41,3.3645 42,-1.838 43,-6.5399 44,-9.4606 45,-9.8045 46,-7.478 47,-3.1147 48,2.0969 49,6.7374 50,9.5429 51,9.7491 52,7.3001 53,2.8627 54,-2.3543 55,-6.9302 56,-9.6184 57,-9.687 58,-7.1171 59,-2.6087 60,2.6101 61,7.1181 62,9.6873 63,9.618 64,6.9291 65,2.3529 66,-2.8641 67,-7.3011 68,-9.7495 69,-9.5424 70,-6.7363 71,-2.0955 72,3.1161 73,7.479 74,9.8048 75,9.4601 76,6.5388 77,1.8366 78,-3.3659 79,-7.6516 80,-9.8533 81,-9.3712 82,-6.3368 83,-1.5764 84,3.6134 85,7.819 86,9.8949 87,9.2758 88,6.1303 89,1.3151 90,-3.8583 91,-7.9808 92,-9.9297 93,-9.1739 94,-5.9196 95,-1.0529 96,4.1006 97,8.1372 98,9.9575 99,9.0657" stroke="black" /></g><g id="dolphin"><text font-size="52.8" x="0" y="105.6">🐬</text><polyline fill="none" points="0,0.0 1,5.0381 2,8.7039 3,9.9991 4,8.5709 5,4.8082 6,-0.264 7,-5.2644 8,-8.8309 9,-9.9922 10,-8.4319 11,-4.575 12,0.5279 13,5.4871 14,8.9517 15,9.9782 16,8.287 17,4.3386 18,-0.7914 19,-5.7059 20,-9.0663 21,-9.9573 22,-8.1363 23,-4.0992 24,1.0543 25,5.9207 26,9.1745 27,9.9295 28,7.98 29,3.857 30,-1.3165 31,-6.1315 32,-9.2764 33,-9.8947 34,-7.8181 35,-3.612 36,1.5778 37,6.3379 38,9.3718 39,9.853 40,7.6507 41,3.3645 42,-1.838 43,-6.5399 44,-9.4606 45,-9.8045 46,-7.478 47,-3.1147 48,2.0969 49,6.7374 50,9.5429 51,9.7491 52,7.3001 53,2.8627 54,-2.3543 55,-6.9302 56,-9.6184 57,-9.687 58,-7.1171 59,-2.6087 60,2.6101 61,7.1181 62,9.6873 63,9.618 64,6.9291 65,2.3529 66,-2.8641 67,-7.3011 68,-9.7495 69,-9.5424 70,-6.7363 71,-2.0955 72,3.1161 73,7.479 74,9.8048 75,9.4601 76,6.5388 77,1.8366 78,-3.3659 79,-7.6516 80,-9.8533 81,-9.3712 82,-6.3368 83,-1.5764 84,3.6134 85,7.819 86,9.8949 87,9.2758 88,6.1303 89,1.3151 90,-3.8583 91,-7.9808 92,-9.9297 93,-9.1739 94,-5.9196 95,-1.0529 96,4.1006 97,8.1372 98,9.9575 99,9.0657" stroke="black" /></g><g id="spiral"><text font-size="52.8" x="0" y="211.2">🌀</text><polyline fill="none" points="0,0.0 1,5.0381 2,8.7039 3,9.9991 4,8.5709 5,4.8082 6,-0.264 7,-5.2644 8,-8.8309 9,-9.9922 10,-8.4319 11,-4.575 12,0.5279 13,5.4871 14,8.9517 15,9.9782 16,8.287 17,4.3386 18,-0.7914 19,-5.7059 20,-9.0663 21,-9.9573 22,-8.1363 23,-4.0992 24,1.0543 25,5.9207 26,9.1745 27,9.9295 28,7.98 29,3.857 30,-1.3165 31,-6.1315 32,-9.2764 33,-9.8947 34,-7.8181 35,-3.612 36,1.5778 37,6.3379 38,9.3718 39,9.853 40,7.6507 41,3.3645 42,-1.838 43,-6.5399 44,-9.4606 45,-9.8045 46,-7.478 47,-3.1147 48,2.0969 49,6.7374 50,9.5429 51,9.7491 52,7.3001 53,2.8627 54,-2.3543 55,-6.9302 56,-9.6184 57,-9.687 58,-7.1171 59,-2.6087 60,2.6101 61,7.1181 62,9.6873 63,9.618 64,6.9291 65,2.3529 66,-2.8641 67,-7.3011 68,-9.7495 69,-9.5424 70,-6.7363 71,-2.0955 72,3.1161 73,7.479 74,9.8048 75,9.4601 76,6.5388 77,1.8366 78,-3.3659 79,-7.6516 80,-9.8533 81,-9.3712 82,-6.3368 83,-1.5764 84,3.6134 85,7.819 86,9.8949 87,9.2758 88,6.1303 89,1.3151 90,-3.8583 91,-7.9808 92,-9.9297 93,-9.1739 94,-5.9196 95,-1.0529 96,4.1006 97,8.1372 98,9.9575 99,9.0657" stroke="black" /></g><g id="swirl"><text font-size="52.8" x="0" y="316.79999999999995">💫</text><polyline fill="none" points="0,0.0 1,5.0381 2,8.7039 3,9.9991 4,8.5709 5,4.8082 6,-0.264 7,-5.2644 8,-8.8309 9,-9.9922 10,-8.4319 11,-4.575 12,0.5279 13,5.4871 14,8.9517 15,9.9782 16,8.287 17,4.3386 18,-0.7914 19,-5.7059 20,-9.0663 21,-9.9573 22,-8.1363 23,-4.0992 24,1.0543 25,5.9207 26,9.1745 27,9.9295 28,7.98 29,3.857 30,-1.3165 31,-6.1315 32,-9.2764 33,-9.8947 34,-7.8181 35,-3.612 36,1.5778 37,6.3379 38,9.3718 39,9.853 40,7.6507 41,3.3645 42,-1.838 43,-6.5399 44,-9.4606 45,-9.8045 46,-7.478 47,-3.1147 48,2.0969 49,6.7374 50,9.5429 51,9.7491 52,7.3001 53,2.8627 54,-2.3543 55,-6.9302 56,-9.6184 57,-9.687 58,-7.1171 59,-2.6087 60,2.6101 61,7.1181 62,9.6873 63,9.618 64,6.9291 65,2.3529 66,-2.8641 67,-7.3011 68,-9.7495 69,-9.5424 70,-6.7363 71,-2.0955 72,3.1161 73,7.479 74,9.8048 75,9.4601 76,6.5388 77,1.8366 78,-3.3659 79,-7.6516 80,-9.8533 81,-9.3712 82,-6.3368 83,-1.5764 84,3.6134 85,7.819 86,9.8949 87,9.2758 88,6.1303 89,1.3151 90,-3.8583 91,-7.9808 92,-9.9297 93,-9.1739 94,-5.9196 95,-1.0529 96,4.1006 97,8.1372 98,9.9575 99,9.0657" stroke="black" /></g><g id="vortex"><text font-size="52.8" x="0" y="422.4">🌪</text><polyline fill="none" points="0,0.0 1,5.0381 2,8.7039 3,9.9991 4,8.5709 5,4.8082 6,-0.264 7,-5.2644 8,-8.8309 9,-9.9922 10,-8.4319 11,-4.575 12,0.5279 13,5.4871 14,8.9517 15,9.9782 16,8.287 17,4.3386 18,-0.7914 19,-5.7059 20,-9.0663 21,-9.9573 22,-8.1363 23,-4.0992 24,1.0543 25,5.9207 26,9.1745 27,9.9295 28,7.98 29,3.857 30,-1.3165 31,-6.1315 32,-9.2764 33,-9.8947 34,-7.8181 35,-3.612 36,1.5778 37,6.3379 38,9.3718 39,9.853 40,7.6507 41,3.3645 42,-1.838 43,-6.5399 44,-9.4606 45,-9.8045 46,-7.478 47,-3.1147 48,2.0969 49,6.7374 50,9.5429 51,9.7491 52,7.3001 53,2.8627 54,-2.3543 55,-6.9302 56,-9.6184 57,-9.687 58,-7.1171 59,-2.6087 60,2.6101 61,7.1181 62,9.6873 63,9.618 64,6.9291 65,2.3529 66,-2.8641 67,-7.3011 68,-9.7495 69,-9.5424 70,-6.7363 71,-2.0955 72,3.1161 73,7.479 74,9.8048 75,9.4601 76,6.5388 77,1.8366 78,-3.3659 79,-7.6516 80,-9.8533 81,-9.3712 82,-6.3368 83,-1.5764 84,3.6134 85,7.819 86,9.8949 87,9.2758 88,6.1303 89,1.3151 90,-3.8583 91,-7.9808 92,-9.9297 93,-9.1739 94,-5.9196 95,-1.0529 96,4.1006 97,8.1372 98,9.9575 99,9.0657" stroke="black" /></g><g id="water"><text font-size="52.8" x="0" y="528.0">💧</text><polyline fill="none" points="0,0.0 1,5.0381 2,8.7039 3,9.9991 4,8.5709 5,4.8082 6,-0.264 7,-5.2644 8,-8.8309 9,-9.9922 10,-8.4319 11,-4.575 12,0.5279 13,5.4871 14,8.9517 15,9.9782 16,8.287 17,4.3386 18,-0.7914 19,-5.7059 20,-9.0663 21,-9.9573 22,-8.1363 23,-4.0992 24,1.0543 25,5.9207 26,9.1745 27,9.9295 28,7.98 29,3.857 30,-1.3165 31,-6.1315 32,-9.2764 33,-9.8947 34,-7.8181 35,-3.612 36,1.5778 37,6.3379 38,9.3718 39,9.853 40,7.6507 41,3.3645 42,-1.838 43,-6.5399 44,-9.4606 45,-9.8045 46,-7.478 47,-3.1147 48,2.0969 49,6.7374 50,9.5429 51,9.7491 52,7.3001 53,2.8627 54,-2.3543 55,-6.9302 56,-9.6184 57,-9.687 58,-7.1171 59,-2.6087 60,2.6101 61,7.1181 62,9.6873 63,9.618 64,6.9291 65,2.3529 66,-2.8641 67,-7.3011 68,-9.7495 69,-9.5424 70,-6.7363 71,-2.0955 72,3.1161 73,7.479 74,9.8048 75,9.4601 76,6.5388 77,1.8366 78,-3.3659 79,-7.6516 80,-9.8533 81,-9.3712 82,-6.3368 83,-1.5764 84,3.6134 85,7.819 86,9.8949 87,9.2758 88,6.1303 89,1.3151 90,-3.8583 91,-7.9808 92,-9.9297 93,-9.1739 94,-5.9196 95,-1.0529 96,4.1006 97,8.1372 98,9.9575 99,9.0657" stroke="black" /></g></svg>